<svg width="127" height="97" viewBox="0 0 127 97" fill="none" xmlns="http://www.w3.org/2000/svg">
<circle cx="48.5" cy="48.5" r="48" fill="#F7E5C1" fill-opacity="0.5"/>
<g clip-path="url(#clip0_1_906)">
<mask id="mask0_1_906" style="mask-type:luminance" maskUnits="userSpaceOnUse" x="30" y="0" width="97" height="97">
<path d="M30.5 0.500008H126.5V96.5H30.5V0.500008Z" fill="white"/>
</mask>
<g mask="url(#mask0_1_906)">
<path d="M90.2383 71.9548V52.9591H66.7618V71.9548C66.7618 72.974 66.0951 73.8719 65.1197 74.1674C56.1073 76.8971 41.3623 79.5594 41.3623 91.9366V93.269C41.3623 94.2768 42.1792 95.0938 43.1871 95.0938H113.813C114.821 95.0938 115.638 94.2768 115.638 93.269V91.9366C115.638 79.5594 100.893 76.8971 91.8804 74.1674C90.905 73.8719 90.2383 72.974 90.2383 71.9548Z" fill="#F9F9F9"/>
<path d="M91.8804 74.1675C90.9048 73.872 90.2383 72.9741 90.2383 71.9548V52.9592H84.6133V74.0173C84.6133 75.0366 85.2798 75.9345 86.2554 76.23C95.2676 78.9596 110.013 79.9344 110.013 92.3117V93.2691C110.013 94.2767 109.196 95.0936 108.188 95.0936H113.813C114.821 95.0936 115.638 94.2769 115.638 93.2691V91.9367C115.638 79.5594 100.893 76.8971 91.8804 74.1675Z" fill="white"/>
<path d="M106.908 35.0696V30.3138C106.908 14.6248 94.1891 1.90627 78.5 1.90627C62.8108 1.90627 50.0923 14.6248 50.0923 30.3138V35.0696H106.908Z" fill="white"/>
<path d="M78.5 1.90615C77.0225 1.90615 75.5713 2.01921 74.1545 2.23671C88.529 4.38733 101.283 16.8058 101.283 31.8051V35.0695H106.908V30.3137C106.908 14.6246 94.1891 1.90615 78.5 1.90615Z" fill="white"/>
<path d="M74.8606 16.5417C64.4811 16.5417 56.0669 24.9559 56.0669 35.3354V45.3994C56.0669 56.6271 71.2529 64.7766 78.5001 64.7766C85.7474 64.7766 100.934 56.6271 100.934 45.3994V35.3354C100.934 24.9559 92.5193 16.5417 82.1397 16.5417H74.8606Z" fill="#F9F9F9"/>
<path d="M82.1396 16.5417H76.5146C86.894 16.5417 95.3083 24.9559 95.3083 35.3354V45.3994C95.3083 55.3225 83.4474 62.8399 75.6875 64.4532C76.7077 64.6652 77.6579 64.7766 78.5 64.7766C85.7472 64.7766 100.933 56.6271 100.933 45.3994V35.3354C100.933 24.9559 92.519 16.5417 82.1396 16.5417Z" fill="white"/>
<path d="M65.7428 57.3056L58.3191 49.724L56.5696 41.1536L58.0656 34.415L49.0557 21.9772L46.2256 6.19027C46.1341 5.68064 45.6469 5.34164 45.1373 5.43295L33.4249 7.53276C32.8992 7.62708 32.5585 8.14064 32.6757 8.66151L40.3731 42.8497C41.2276 46.6451 43.4254 50.0034 46.5616 52.3057L63.7009 64.8884C64.4738 65.456 65.5662 65.3186 66.1551 64.5618C67.8535 62.3791 67.6756 59.2794 65.7428 57.3056Z" fill="white"/>
<path d="M51.4968 35.5927L53.2121 45.1605C53.5374 46.9745 55.2714 48.1813 57.0855 47.8561C58.8993 47.5308 60.1063 45.7968 59.781 43.983L58.0657 34.415L51.4968 35.5927Z" fill="white"/>
<path d="M91.2572 57.3056L98.6809 49.724L100.43 41.1536L98.9344 34.415L107.944 21.9772L110.774 6.19027C110.866 5.68064 111.353 5.34164 111.863 5.43295L123.575 7.53276C124.101 7.62708 124.442 8.14064 124.324 8.66151L116.627 42.8497C115.772 46.6451 113.575 50.0034 110.438 52.3057L93.2991 64.8884C92.5262 65.456 91.4339 65.3186 90.8449 64.5618C89.1465 62.3791 89.3245 59.2794 91.2572 57.3056Z" fill="white"/>
<path d="M123.575 7.53276L119.512 6.80433C119.788 7.02014 119.933 7.38239 119.85 7.74895L112.153 41.9371C111.299 45.7325 109.101 49.091 105.965 51.3931L90.0269 63.0939C90.219 63.6106 90.4905 64.1064 90.8449 64.5618C91.4339 65.3186 92.526 65.456 93.2989 64.8884L110.438 52.3057C113.575 50.0034 115.772 46.6451 116.627 42.8497L124.324 8.66151C124.442 8.14064 124.101 7.62708 123.575 7.53276Z" fill="white"/>
<path d="M105.503 35.5927L103.788 45.1605C103.463 46.9745 101.729 48.1813 99.9147 47.8561C98.1008 47.5308 96.8939 45.7968 97.2192 43.983L98.9345 34.415L105.503 35.5927Z" fill="white"/>
<path d="M106.633 79.1713C111.69 81.7288 115.638 85.5331 115.638 91.9363V93.2694C115.638 94.2763 114.821 95.0938 113.814 95.0938H43.1864C42.1796 95.0938 41.3621 94.2763 41.3621 93.2694V91.9363C41.3621 79.5594 56.1071 76.8969 65.1202 74.1669C66.0952 73.8725 66.7627 72.9744 66.7627 71.9544V63.5844" stroke="#BA7894" stroke-width="3" stroke-miterlimit="10" stroke-linecap="round" stroke-linejoin="round"/>
<path d="M90.2375 63.5844V71.9544C90.2375 72.9744 90.905 73.8725 91.88 74.1669C94.4413 74.9432 97.4657 75.7138 100.481 76.7019" stroke="#BA7894" stroke-width="3" stroke-miterlimit="10" stroke-linecap="round" stroke-linejoin="round"/>
<path d="M78.5 1.90625C92.1237 1.90625 103.507 11.495 106.267 24.2919" stroke="#BA7894" stroke-width="3" stroke-miterlimit="10" stroke-linecap="round" stroke-linejoin="round"/>
<path d="M57.0314 29.3825C56.7426 30.2469 56.5139 31.1375 56.3545 32.0525" stroke="#BA7894" stroke-width="3" stroke-miterlimit="10" stroke-linecap="round" stroke-linejoin="round"/>
<path d="M67.3176 61.0981C71.3226 63.4381 75.5639 64.7769 78.5001 64.7769C81.4383 64.7769 85.6776 63.4381 89.6826 61.1" stroke="#BA7894" stroke-width="3" stroke-miterlimit="10" stroke-linecap="round" stroke-linejoin="round"/>
<path d="M72.2339 16.7262C73.0926 16.6044 73.9701 16.5425 74.8608 16.5425H82.1395C91.4001 16.5425 99.0933 23.2381 100.646 32.0525" stroke="#BA7894" stroke-width="3" stroke-miterlimit="10" stroke-linecap="round" stroke-linejoin="round"/>
<path d="M57.0259 29.3951C60.4133 21.2657 82.3243 10.8694 94.605 6.91146C90.0279 3.75564 84.4804 1.90614 78.5001 1.90614C73.7226 1.90614 69.2205 3.08552 65.2691 5.16902" stroke="#BA7894" stroke-width="3" stroke-miterlimit="10" stroke-linecap="round" stroke-linejoin="round"/>
<path d="M57.8863 47.6056C59.2382 46.9868 60.0557 45.5131 59.7801 43.9831L58.0663 34.415L49.0551 21.9762L46.2257 6.19059C46.1338 5.68059 45.6463 5.34121 45.1382 5.43309L33.4251 7.53309C32.9001 7.62684 32.5588 8.14059 32.6751 8.66184L40.3738 42.8506C41.227 46.6456 43.4263 50.0037 46.5613 52.3062L63.7007 64.8893C64.4732 65.4556 65.5663 65.3187 66.1551 64.5612C67.8538 62.3787 67.6757 59.2793 65.7426 57.305L58.3195 49.7243L57.8863 47.6056ZM57.8863 47.6056C57.637 47.72 57.3688 47.8062 57.0857 47.8568C55.2707 48.1812 53.5382 46.9737 53.212 45.1606L51.4963 35.5925" stroke="#BA7894" stroke-width="3" stroke-miterlimit="10" stroke-linecap="round" stroke-linejoin="round"/>
<path d="M105.503 35.5927L103.788 45.1604C103.463 46.9745 101.729 48.1812 99.9147 47.8561C98.1008 47.5308 96.8939 45.7968 97.2192 43.9829L98.9344 34.415L107.945 21.9762L110.774 6.19059C110.866 5.68059 111.354 5.34122 111.862 5.43309L123.575 7.53309C124.1 7.62684 124.441 8.14059 124.325 8.66184L116.626 42.8506C115.773 46.6456 113.574 50.0037 110.439 52.3062L93.2995 64.8893C92.527 65.4556 91.4339 65.3187 90.8451 64.5612C89.1464 62.3787 89.3245 59.2793 91.2576 57.305L98.6807 49.7243L99.1139 47.6056" stroke="#BA7894" stroke-width="3" stroke-miterlimit="10" stroke-linecap="round" stroke-linejoin="round"/>
<path d="M65.1658 37.2285C66.983 36.1135 68.8003 36.1135 70.6177 37.2285" stroke="#BA7894" stroke-width="3" stroke-miterlimit="10" stroke-linecap="round" stroke-linejoin="round"/>
<path d="M86.3823 37.2285C88.1996 36.1135 90.0168 36.1135 91.8343 37.2285" stroke="#BA7894" stroke-width="3" stroke-miterlimit="10" stroke-linecap="round" stroke-linejoin="round"/>
<path d="M73.4661 51.7124C76.6781 53.1024 80.3218 53.1024 83.5339 51.7124" stroke="#BA7894" stroke-width="3" stroke-miterlimit="10" stroke-linecap="round" stroke-linejoin="round"/>
<path d="M50.7332 24.2919C52.0438 18.2206 55.2932 12.8712 59.8044 8.92625" stroke="#BA7894" stroke-width="3" stroke-miterlimit="10" stroke-linecap="round" stroke-linejoin="round"/>
</g>
</g>
<defs>
<clipPath id="clip0_1_906">
<rect width="96" height="96" fill="white" transform="translate(30.5 0.5)"/>
</clipPath>
</defs>
</svg>
